<mxfile host="app.diagrams.net" modified="2023-06-25T15:02:32.960Z" agent="Mozilla/5.0 (Windows NT 10.0; Win64; x64) AppleWebKit/537.36 (KHTML, like Gecko) Chrome/114.0.0.0 Safari/537.36" version="21.5.0" etag="q6Z9-b86g-PRUVDeWgjw" type="github">
  <diagram name="PÃ¡gina-1" id="SLnSGF_Fg0hcpHibnr4o">
    <mxGraphModel>
      <root>
        <mxCell id="0" />
        <mxCell id="1" parent="0" />
      </root>
    </mxGraphModel>
  </diagram>
</mxfile>
